<svg width="339" height="369" viewBox="0 0 339 369" fill="none" xmlns="http://www.w3.org/2000/svg">
<path d="M126.763 197.435V147.529L169.984 172.482V222.389L126.763 197.435Z" fill="#B9B9B9"/>
<path d="M213.205 197.435L169.984 222.389V172.482L213.205 147.529V197.435Z" fill="#535A50"/>
<path d="M126.763 147.529L169.984 122.575L213.205 147.529L169.984 172.482L126.763 147.529Z" fill="#535A50"/>
<path d="M126.763 147.529L169.984 122.575L213.205 147.529L169.984 172.482L126.763 147.529Z" fill="white"/>
<path d="M170.734 172.915V221.089L212.455 197.002V148.827L170.734 172.915ZM127.513 197.002L169.234 221.089V172.915L127.513 148.827V197.002ZM128.263 147.528L169.984 171.616L211.706 147.528L169.984 123.44L128.263 147.528Z" stroke="black" stroke-width="1.5"/>
<path d="M168.808 221.455V171.549L212.029 196.502V246.409L168.808 221.455Z" fill="#B9B9B9"/>
<path d="M255.249 221.455L212.029 246.409V196.502L255.249 171.549V221.455Z" fill="#535A50"/>
<path d="M168.808 171.549L212.029 146.595L255.249 171.549L212.029 196.502L168.808 171.549Z" fill="#535A50"/>
<path d="M168.808 171.549L212.029 146.595L255.249 171.549L212.029 196.502L168.808 171.549Z" fill="white"/>
<path d="M212.778 196.935V245.109L254.499 221.022V172.847L212.778 196.935ZM169.558 221.022L211.278 245.109V196.935L169.558 172.847V221.022ZM170.308 171.548L212.028 195.636L253.75 171.548L212.028 147.46L170.308 171.548Z" stroke="black" stroke-width="1.5"/>
<path d="M211.724 246.347V196.44L254.944 221.393V271.3L211.724 246.347Z" fill="#B9B9B9"/>
<path d="M298.165 246.347L254.944 271.3V221.393L298.165 196.44V246.347Z" fill="#535A50"/>
<path d="M211.724 196.44L254.944 171.486L298.165 196.44L254.944 221.393L211.724 196.44Z" fill="#535A50"/>
<path d="M211.724 196.44L254.944 171.486L298.165 196.44L254.944 221.393L211.724 196.44Z" fill="white"/>
<path d="M255.694 221.826V270L297.415 245.913V197.738L255.694 221.826ZM212.473 245.913L254.194 270V221.826L212.473 197.738V245.913ZM213.223 196.439L254.944 220.527L296.666 196.439L254.944 172.352L213.223 196.439Z" stroke="black" stroke-width="1.5"/>
<path d="M84.7187 221.455V171.549L127.939 196.502V246.409L84.7187 221.455Z" fill="#B9B9B9"/>
<path d="M171.16 221.455L127.939 246.409V196.502L171.16 171.549V221.455Z" fill="#FAAF40"/>
<path d="M84.7187 171.549L127.939 146.595L171.16 171.549L127.939 196.502L84.7187 171.549Z" fill="#FAAF40"/>
<path d="M84.7187 171.549L127.939 146.595L171.16 171.549L127.939 196.502L84.7187 171.549Z" fill="white"/>
<path d="M128.689 196.935V245.109L170.41 221.022V172.847L128.689 196.935ZM85.4685 221.022L127.189 245.109V196.935L85.4685 172.847V221.022ZM86.2185 171.548L127.939 195.636L169.661 171.548L127.939 147.46L86.2185 171.548Z" stroke="black" stroke-width="1.5"/>
<path d="M84.7187 172.4V122.493L127.939 147.447V197.354L84.7187 172.4Z" fill="#B9B9B9"/>
<path d="M171.16 172.4L127.939 197.354V147.447L171.16 122.493V172.4Z" fill="#FAAF40"/>
<path d="M84.7187 122.493L127.939 97.54L171.16 122.493L127.939 147.447L84.7187 122.493Z" fill="#FAAF40"/>
<path d="M84.7187 122.493L127.939 97.54L171.16 122.493L127.939 147.447L84.7187 122.493Z" fill="white"/>
<path d="M128.689 147.88V196.054L170.41 171.967V123.792L128.689 147.88ZM85.4685 171.967L127.189 196.054V147.88L85.4685 123.792V171.967ZM86.2185 122.493L127.939 146.581L169.661 122.493L127.939 98.4053L86.2185 122.493Z" stroke="black" stroke-width="1.5"/>
<path d="M84.7187 123.63V73.7234L127.939 98.6769V148.584L84.7187 123.63Z" fill="#B9B9B9"/>
<path d="M171.16 123.63L127.939 148.584V98.6769L171.16 73.7234V123.63Z" fill="#FAAF40"/>
<path d="M84.7187 73.7234L127.939 48.77L171.16 73.7234L127.939 98.6769L84.7187 73.7234Z" fill="#FAAF40"/>
<path d="M84.7187 73.7234L127.939 48.77L171.16 73.7234L127.939 98.6769L84.7187 73.7234Z" fill="white"/>
<path d="M128.689 99.1099V147.284L170.41 123.197V75.022L128.689 99.1099ZM85.4685 123.197L127.189 147.284V99.1099L85.4685 75.022V123.197ZM86.2185 73.7231L127.939 97.811L169.661 73.7231L127.939 49.6353L86.2185 73.7231Z" stroke="black" stroke-width="1.5"/>
<path d="M252.559 269.94V220.033L295.779 244.986V294.893L252.559 269.94Z" fill="#B9B9B9"/>
<path d="M339 269.94L295.779 294.893V244.986L339 220.033V269.94Z" fill="#535A50"/>
<path d="M252.559 220.033L295.779 195.08L339 220.033L295.779 244.986L252.559 220.033Z" fill="#535A50"/>
<path d="M252.559 220.033L295.779 195.08L339 220.033L295.779 244.986L252.559 220.033Z" fill="white"/>
<path d="M296.529 245.419V293.593L338.25 269.506V221.332L296.529 245.419ZM253.309 269.506L295.029 293.593V245.419L253.309 221.332V269.506ZM254.059 220.033L295.779 244.121L337.501 220.033L295.779 195.945L254.059 220.033Z" stroke="black" stroke-width="1.5"/>
<path d="M42.6739 245.476V195.569L85.8945 220.522V270.429L42.6739 245.476Z" fill="#B9B9B9"/>
<path d="M129.115 245.476L85.8945 270.429V220.522L129.115 195.569V245.476Z" fill="#FAAF40"/>
<path d="M42.6739 195.569L85.8945 170.615L129.115 195.569L85.8945 220.522L42.6739 195.569Z" fill="#FAAF40"/>
<path d="M42.6739 195.569L85.8945 170.615L129.115 195.569L85.8945 220.522L42.6739 195.569Z" fill="white"/>
<path d="M86.6444 220.955V269.129L128.365 245.042V196.867L86.6444 220.955ZM43.4237 245.042L85.1444 269.129V220.955L43.4237 196.867V245.042ZM44.1737 195.568L85.8944 219.656L127.616 195.568L85.8944 171.48L44.1737 195.568Z" stroke="black" stroke-width="1.5"/>
<path d="M42.6739 196.785V146.878L85.8945 171.832V221.739L42.6739 196.785Z" fill="#B9B9B9"/>
<path d="M129.115 196.785L85.8945 221.739V171.832L129.115 146.878V196.785Z" fill="#FAAF40"/>
<path d="M42.6739 146.878L85.8945 121.925L129.115 146.878L85.8945 171.832L42.6739 146.878Z" fill="#FAAF40"/>
<path d="M42.6739 146.878L85.8945 121.925L129.115 146.878L85.8945 171.832L42.6739 146.878Z" fill="white"/>
<path d="M86.6444 172.265V220.438L128.365 196.352V148.177L86.6444 172.265ZM43.4237 196.352L85.1444 220.438V172.265L43.4237 148.177V196.352ZM44.1737 146.878L85.8944 170.966L127.616 146.878L85.8944 122.79L44.1737 146.878Z" stroke="black" stroke-width="1.5"/>
<path d="M-4.3253e-05 269.94V220.033L43.2206 244.986V294.893L-4.3253e-05 269.94Z" fill="#B9B9B9"/>
<path d="M86.4412 269.94L43.2206 294.893V244.986L86.4412 220.033V269.94Z" fill="#535A50"/>
<path d="M-4.3253e-05 220.033L43.2206 195.08L86.4412 220.033L43.2206 244.986L-4.3253e-05 220.033Z" fill="#535A50"/>
<path d="M-4.3253e-05 220.033L43.2206 195.08L86.4412 220.033L43.2206 244.986L-4.3253e-05 220.033Z" fill="white"/>
<path d="M43.9705 245.419V293.593L85.6912 269.506V221.332L43.9705 245.419ZM0.749756 269.506L42.4705 293.593V245.419L0.749756 221.332V269.506ZM1.49976 220.033L43.2205 244.121L84.9421 220.033L43.2205 195.945L1.49976 220.033Z" stroke="black" stroke-width="1.5"/>
<path d="M40.932 293.454V243.547L84.1526 268.501V318.407L40.932 293.454Z" fill="#B9B9B9"/>
<path d="M127.373 293.454L84.1526 318.407V268.501L127.373 243.547V293.454Z" fill="#535A50"/>
<path d="M40.932 243.547L84.1526 218.594L127.373 243.547L84.1526 268.501L40.932 243.547Z" fill="#535A50"/>
<path d="M40.932 243.547L84.1526 218.594L127.373 243.547L84.1526 268.501L40.932 243.547Z" fill="white"/>
<path d="M84.9025 268.934V317.107L126.623 293.021V244.846L84.9025 268.934ZM41.6818 293.021L83.4025 317.107V268.934L41.6818 244.846V293.021ZM42.4318 243.547L84.1525 267.635L125.874 243.547L84.1525 219.459L42.4318 243.547Z" stroke="black" stroke-width="1.5"/>
<path d="M83.6057 317.839V267.932L126.826 292.886V342.793L83.6057 317.839Z" fill="#B9B9B9"/>
<path d="M170.047 317.839L126.826 342.793V292.886L170.047 267.932V317.839Z" fill="#535A50"/>
<path d="M83.6057 267.932L126.826 242.979L170.047 267.932L126.826 292.886L83.6057 267.932Z" fill="#535A50"/>
<path d="M83.6057 267.932L126.826 242.979L170.047 267.932L126.826 292.886L83.6057 267.932Z" fill="white"/>
<path d="M127.576 293.319V341.493L169.297 317.406V269.231L127.576 293.319ZM84.3555 317.406L126.076 341.493V293.319L84.3555 269.231V317.406ZM85.1055 267.932L126.826 292.02L168.548 267.932L126.826 243.844L85.1055 267.932Z" stroke="black" stroke-width="1.5"/>
<path d="M210.756 294.325V244.418L253.977 269.372V319.279L210.756 294.325Z" fill="#B9B9B9"/>
<path d="M297.197 294.325L253.977 319.279V269.372L297.197 244.418V294.325Z" fill="#535A50"/>
<path d="M210.756 244.418L253.977 219.465L297.197 244.418L253.977 269.372L210.756 244.418Z" fill="#535A50"/>
<path d="M210.756 244.418L253.977 219.465L297.197 244.418L253.977 269.372L210.756 244.418Z" fill="white"/>
<path d="M254.727 269.805V317.979L296.447 293.892V245.717L254.727 269.805ZM211.506 293.892L253.227 317.979V269.805L211.506 245.717V293.892ZM212.256 244.418L253.977 268.506L295.698 244.418L253.977 220.33L212.256 244.418Z" stroke="black" stroke-width="1.5"/>
<path d="M168.953 318.71V268.803L212.174 293.756V343.663L168.953 318.71Z" fill="#B9B9B9"/>
<path d="M255.394 318.71L212.174 343.663V293.756L255.394 268.803V318.71Z" fill="#535A50"/>
<path d="M168.953 268.803L212.174 243.85L255.394 268.803L212.174 293.756L168.953 268.803Z" fill="#535A50"/>
<path d="M168.953 268.803L212.174 243.85L255.394 268.803L212.174 293.756L168.953 268.803Z" fill="white"/>
<path d="M212.924 294.189V342.363L254.644 318.276V270.102L212.924 294.189ZM169.703 318.276L211.424 342.363V294.189L169.703 270.102V318.276ZM170.453 268.803L212.174 292.891L253.895 268.803L212.174 244.715L170.453 268.803Z" stroke="black" stroke-width="1.5"/>
<path d="M126.279 343.095V293.188L169.5 318.142V368.049L126.279 343.095Z" fill="#B9B9B9"/>
<path d="M212.721 343.095L169.5 368.049V318.142L212.721 293.188V343.095Z" fill="#535A50"/>
<path d="M126.279 293.188L169.5 268.235L212.721 293.188L169.5 318.142L126.279 293.188Z" fill="#535A50"/>
<path d="M126.279 293.188L169.5 268.235L212.721 293.188L169.5 318.142L126.279 293.188Z" fill="white"/>
<path d="M170.25 318.575V366.749L211.971 342.662V294.487L170.25 318.575ZM127.029 342.662L168.75 366.749V318.575L127.029 294.487V342.662ZM127.779 293.188L169.5 317.276L211.222 293.188L169.5 269.1L127.779 293.188Z" stroke="black" stroke-width="1.5"/>
<path d="M-4.3253e-05 220.299V170.392L43.2206 195.346V245.253L-4.3253e-05 220.299Z" fill="black"/>
<path d="M86.4412 220.299L43.2206 245.253V195.346L86.4412 170.392V220.299Z" fill="#FAAF40"/>
<path d="M-4.3253e-05 170.392L43.2206 145.439L86.4412 170.392L43.2206 195.346L-4.3253e-05 170.392Z" fill="#FAAF40"/>
<path d="M-4.3253e-05 170.392L43.2206 145.439L86.4412 170.392L43.2206 195.346L-4.3253e-05 170.392Z" fill="white"/>
<path d="M43.9705 195.779V243.953L85.6912 219.866V171.691L43.9705 195.779ZM0.749756 219.866L42.4705 243.953V195.779L0.749756 171.691V219.866ZM1.49976 170.392L43.2205 194.48L84.9421 170.392L43.2205 146.304L1.49976 170.392Z" stroke="black" stroke-width="1.5"/>
<path d="M42.6738 148.015V98.1082L85.8944 123.062V172.968L42.6738 148.015Z" fill="black"/>
<path d="M129.115 148.015L85.8944 172.968V123.062L129.115 98.1082V148.015Z" fill="#FAAF40"/>
<path d="M42.6738 98.1082L85.8944 73.1548L129.115 98.1082L85.8944 123.062L42.6738 98.1082Z" fill="#FAAF40"/>
<path d="M42.6738 98.1082L85.8944 73.1548L129.115 98.1082L85.8944 123.062L42.6738 98.1082Z" fill="white"/>
<path d="M86.6443 123.495V171.668L128.365 147.582V99.4067L86.6443 123.495ZM43.4236 147.582L85.1443 171.668V123.495L43.4236 99.4067V147.582ZM44.1736 98.1079L85.8943 122.196L127.616 98.1079L85.8943 74.02L44.1736 98.1079Z" stroke="black" stroke-width="1.5"/>
<path d="M84.4765 74.8603V24.9534L127.697 49.9069V99.8137L84.4765 74.8603Z" fill="black"/>
<path d="M170.918 74.8603L127.697 99.8137V49.9069L170.918 24.9534V74.8603Z" fill="#FAAF40"/>
<path d="M84.4765 24.9534L127.697 0L170.918 24.9534L127.697 49.9069L84.4765 24.9534Z" fill="#FAAF40"/>
<path d="M84.4765 24.9534L127.697 0L170.918 24.9534L127.697 49.9069L84.4765 24.9534Z" fill="white"/>
<path d="M128.447 50.3398V98.5137L170.168 74.4268V26.252L128.447 50.3398ZM85.2263 74.4268L126.947 98.5137V50.3398L85.2263 26.252V74.4268ZM85.9763 24.9531L127.697 49.041L169.419 24.9531L127.697 0.865234L85.9763 24.9531Z" stroke="black" stroke-width="1.5"/>
</svg>
